# xmcd
#
# Track frame offsets: 
#        150
#        10160
#        20662
#        28307
#        41633
#        50438
#        58763
#        69326
#        80186
#        99279
#        112405
#        134910
#        145751
#        154065
#        163797
#        183050
#        204039
#        222830
#        235742
#
# Disc length: 3471 seconds
#
# Revision: 0
# Processed by: cddbd v1.5.2PL0 Copyright (c) Steve Scherf et al.
# Submitted via: ExactAudioCopy v1.0b3
#
DISCID=0f0d8d13
DTITLE=八代亜紀 - 八周年記念 八代亜紀リサイタル Disc 2 TECE-3169-70
DYEAR=1900
DGENRE=Blues
TTITLE0=おんなの夢 
TTITLE1=ともしび 
TTITLE2=貴方につくします
TTITLE3=花水仙 
TTITLE4=MC 
TTITLE5=もう一度逢いたい
TTITLE6=おんな港町 
TTITLE7=恋歌
TTITLE8=MC
TTITLE9=愛の終着駅
TTITLE10=哀歌
TTITLE11=故郷へ…… 
TTITLE12=涙の朝 
TTITLE13=女だから 
TTITLE14=MC (メンバー紹介) 
TTITLE15=舟唄 
TTITLE16=雨の慕情 
TTITLE17=MC 
TTITLE18=港町絶唱 
EXTD=
EXTT0=
EXTT1=
EXTT2=
EXTT3=
EXTT4=
EXTT5=
EXTT6=
EXTT7=
EXTT8=
EXTT9=
EXTT10=
EXTT11=
EXTT12=
EXTT13=
EXTT14=
EXTT15=
EXTT16=
EXTT17=
EXTT18=
PLAYORDER=
